<svg width="80" height="80" viewBox="0 0 80 80" fill="none" xmlns="http://www.w3.org/2000/svg">
<path d="M19.5 57C22.3334 54.8333 25.5 53.125 29 51.875C32.5 50.625 36.1667 50 40 50C43.8334 50 47.5 50.625 51 51.875C54.5 53.125 57.6667 54.8333 60.5 57C62.4445 54.7222 63.9584 52.1389 65.0417 49.25C66.125 46.3611 66.6667 43.2778 66.6667 40C66.6667 32.6111 64.0695 26.3195 58.875 21.125C53.6806 15.9306 47.3889 13.3333 40 13.3333C32.6111 13.3333 26.3195 15.9306 21.125 21.125C15.9306 26.3195 13.3334 32.6111 13.3334 40C13.3334 43.2778 13.875 46.3611 14.9584 49.25C16.0417 52.1389 17.5556 54.7222 19.5 57ZM40 43.3333C36.7222 43.3333 33.9584 42.2083 31.7084 39.9583C29.4584 37.7083 28.3334 34.9445 28.3334 31.6667C28.3334 28.3889 29.4584 25.625 31.7084 23.375C33.9584 21.125 36.7222 20 40 20C43.2778 20 46.0417 21.125 48.2917 23.375C50.5417 25.625 51.6667 28.3889 51.6667 31.6667C51.6667 34.9445 50.5417 37.7083 48.2917 39.9583C46.0417 42.2083 43.2778 43.3333 40 43.3333ZM40 73.3333C35.3889 73.3333 31.0556 72.4583 27 70.7083C22.9445 68.9583 19.4167 66.5833 16.4167 63.5833C13.4167 60.5833 11.0417 57.0556 9.29169 53C7.54169 48.9445 6.66669 44.6111 6.66669 40C6.66669 35.3889 7.54169 31.0556 9.29169 27C11.0417 22.9445 13.4167 19.4167 16.4167 16.4167C19.4167 13.4167 22.9445 11.0417 27 9.29167C31.0556 7.54167 35.3889 6.66667 40 6.66667C44.6111 6.66667 48.9445 7.54167 53 9.29167C57.0556 11.0417 60.5834 13.4167 63.5834 16.4167C66.5834 19.4167 68.9584 22.9445 70.7084 27C72.4584 31.0556 73.3334 35.3889 73.3334 40C73.3334 44.6111 72.4584 48.9445 70.7084 53C68.9584 57.0556 66.5834 60.5833 63.5834 63.5833C60.5834 66.5833 57.0556 68.9583 53 70.7083C48.9445 72.4583 44.6111 73.3333 40 73.3333Z" fill="#888888"/>
</svg>
