<svg width="20" height="20" viewBox="0 0 20 20" fill="none" xmlns="http://www.w3.org/2000/svg">
<path d="M19.4497 19.4497C18.7161 20.1834 17.5269 20.1834 16.7932 19.4497L13.4783 16.1348C12.1154 17.0091 10.5044 17.53 8.76501 17.53C3.92457 17.53 0 13.606 0 8.76497C0 3.92399 3.92457 0 8.76501 0C13.6061 0 17.53 3.92391 17.53 8.76497C17.53 10.5038 17.0085 12.1154 16.1348 13.4789L19.4497 16.7938C20.1834 17.5275 20.1834 18.7161 19.4497 19.4497ZM8.76501 2.50426C5.30754 2.50426 2.5043 5.30688 2.5043 8.76493C2.5043 12.223 5.30758 15.0256 8.76501 15.0256C12.223 15.0256 15.0257 12.223 15.0257 8.76493C15.0257 5.30688 12.223 2.50426 8.76501 2.50426Z" fill="#872341"/>
</svg>
